<svg xmlns="http://www.w3.org/2000/svg" width="33" height="32" fill="none" viewBox="0 0 33 32"><path stroke="#fff" stroke-linecap="round" stroke-linejoin="round" stroke-width="1.5" d="M16.5 12V18"/><path stroke="#fff" stroke-linecap="round" stroke-linejoin="round" stroke-width="1.5" d="M14.769 4.99809L3.77198 23.9971C3.59602 24.3011 3.50322 24.6461 3.50293 24.9974C3.50264 25.3486 3.59487 25.6938 3.77033 25.9981C3.94579 26.3024 4.1983 26.5551 4.50246 26.7308C4.80661 26.9065 5.15167 26.999 5.50294 26.999H27.497C27.8483 26.999 28.1933 26.9065 28.4975 26.7308C28.8016 26.5551 29.0541 26.3024 29.2296 25.9981C29.4051 25.6938 29.4973 25.3486 29.497 24.9974C29.4967 24.6461 29.4039 24.3011 29.2279 23.9971L18.2309 4.99809C18.0552 4.69457 17.8028 4.44258 17.499 4.2674C17.1952 4.09222 16.8507 4 16.5 4C16.1493 4 15.8047 4.09222 15.5009 4.2674C15.1971 4.44258 14.9447 4.69457 14.769 4.99809V4.99809Z"/><path fill="#fff" d="M16.5 23.75C17.1904 23.75 17.75 23.1904 17.75 22.5C17.75 21.8096 17.1904 21.25 16.5 21.25C15.8096 21.25 15.25 21.8096 15.25 22.5C15.25 23.1904 15.8096 23.75 16.5 23.75Z"/></svg>